<?xml version="1.0" encoding="UTF-8" standalone="no"?>
<svg
   xmlns:dc="http://purl.org/dc/elements/1.1/"
   xmlns:cc="http://creativecommons.org/ns#"
   xmlns:rdf="http://www.w3.org/1999/02/22-rdf-syntax-ns#"
   xmlns:svg="http://www.w3.org/2000/svg"
   xmlns="http://www.w3.org/2000/svg"
   id="svg8"
   version="1.1"
   viewBox="0 0 210 297"
   height="297mm"
   width="210mm">
  <defs
     id="defs2" />
  <metadata
     id="metadata5">
    <rdf:RDF>
      <cc:Work
         rdf:about="">
        <dc:format>image/svg+xml</dc:format>
        <dc:type
           rdf:resource="http://purl.org/dc/dcmitype/StillImage" />
        <dc:title></dc:title>
      </cc:Work>
    </rdf:RDF>
  </metadata>
  <g
     id="layer1">
    <path
       id="path3697"
       d="m 50.51394,86.525247 c 3.207234,12.027127 3.207234,12.96257 3.207234,12.96257 l -2.405425,1.069073 c 0,0 -4.009043,0.40091 -5.34539,0.53455 -1.336347,0.13363 -9.755338,-1.202719 -9.755338,-1.202719 l -4.009044,-0.801809 -0.534537,4.543588 2.939962,6.28083 5.078122,5.47902 c 0,0 4.409948,4.40995 5.479026,4.54359 1.069078,0.13363 8.285355,2.00452 14.566188,2.00452 6.280835,0 13.898017,8.55262 26.860587,3.4745 12.962572,-5.07812 33.007785,-6.94901 33.809595,-7.34991 0.80181,-0.4009 27.39513,-10.95805 27.39513,-10.95805 0,0 -0.26727,-5.21176 -6.54811,-7.08264 -6.28083,-1.87089 -27.12785,-14.566194 -39.95679,-14.833462 -12.828938,-0.267269 -7.617181,-3.474503 -7.617181,-3.474503 0,0 25.256971,0.668173 39.422251,8.151719 14.16529,7.483547 25.12334,6.68174 23.25245,15.100726 -1.87089,8.41899 -7.88445,11.22532 -7.88445,11.22532 l -13.22984,3.74178 -22.45064,5.74629 -18.040693,4.00904 2.539061,14.9671 -39.956795,7.34991 c 0,0 -9.755338,0 -10.022607,-0.53454 -0.267269,-0.53454 -7.483547,-12.2944 -8.018087,-12.96257 -0.534538,-0.66818 -8.552624,-12.56167 -10.423512,-15.368 -1.870884,-2.80633 -6.815371,-26.459683 -5.746293,-28.597839 1.069078,-2.138156 27.395126,-8.018084 27.395126,-8.018084 z"
       style="fill:none;stroke:#000000;stroke-width:0.26458332px;stroke-linecap:butt;stroke-linejoin:miter;stroke-opacity:1" />
    <path
       id="path3699"
       d="m 73.098215,137.44009 21.247927,-2.53906 2.939966,9.75534 -22.450642,2.13815 z"
       style="fill:none;stroke:#000000;stroke-width:0.26458332px;stroke-linecap:butt;stroke-linejoin:miter;stroke-opacity:1" />
    <path
       id="path3701"
       d="m 32.874151,118.99849 13.630745,16.83798 0.400905,10.15625 -14.833457,-21.78247 z"
       style="fill:none;stroke:#000000;stroke-width:0.26458332px;stroke-linecap:butt;stroke-linejoin:miter;stroke-opacity:1" />
    <path
       id="path3703"
       d="m 43.698567,90.935192 -2.00452,2.539061 1.603615,2.138156 4.009044,-1.336347 0.801809,-2.405425 z"
       style="fill:none;stroke:#000000;stroke-width:0.26458332px;stroke-linecap:butt;stroke-linejoin:miter;stroke-opacity:1" />
    <path
       transform="scale(0.26458333)"
       id="path3705"
       d="m 162.42324,358.4029 c -0.72745,-0.97228 -1.89021,-2.52706 -2.58391,-3.45508 l -1.26126,-1.6873 3.33618,-4.24734 c 1.83491,-2.33604 3.38664,-4.30344 3.44831,-4.37199 0.11537,-0.12826 15.07748,2.94087 15.31716,3.14196 0.0735,0.0617 -0.49468,1.8908 -1.26269,4.06469 l -1.39638,3.95254 -6.55118,2.18514 c -3.60315,1.20183 -6.81497,2.18514 -7.13739,2.18514 -0.32241,0 -1.18139,-0.79549 -1.90884,-1.76776 z"
       style="fill:#ff0000;stroke-width:0.50507629" />
    <path
       transform="scale(0.26458333)"
       id="path3707"
       d="m 150.9792,511.84668 c -13.73977,-20.17015 -25.87206,-38.01559 -26.96065,-39.65653 l -1.97924,-2.98354 1.15812,-7.92469 c 0.63697,-4.35858 1.32375,-8.23448 1.52619,-8.61311 0.24979,-0.4672 8.39973,9.23431 25.36162,30.18988 l 24.99356,30.8783 0.64817,17.18407 c 0.35649,9.45125 0.5549,17.27735 0.4409,17.39135 -0.11399,0.114 -11.4489,-16.29558 -25.18867,-36.46573 z"
       style="fill:#ff0000;stroke-width:0.50507629" />
    <path
       transform="scale(0.26458333)"
       id="path3709"
       d="m 283.32906,553.7235 c 0,-0.23719 -1.37326,-7.7813 -3.05168,-16.76471 -1.67842,-8.98341 -2.87166,-16.48807 -2.65165,-16.67702 0.46607,-0.40028 78.03141,-9.66456 78.33925,-9.35672 0.3814,0.3814 10.67813,34.8005 10.47238,35.00625 -0.11175,0.11174 -17.77723,1.87392 -39.25663,3.91594 -21.4794,2.04202 -40.13305,3.84658 -41.45256,4.01014 -1.31951,0.16355 -2.39911,0.1033 -2.39911,-0.13388 z"
       style="fill:#ff0000;stroke-width:0.50507629" />
  </g>
</svg>

